# xmcd
# 
# Track frame offsets:
#     150
#     24037
#     65042
#     87685
#     116717
#     149987
#     216330
#     248532
#     303140
#     350637
# 
# Disc length: 4712
# 
# Revision: 1
# Processed by: cddbd v1.5.2PL0 Copyright (c) Steve Scherf et al.
# Submitted via: BonkEnc v1.0.6
# 
DISCID=9912660a
DTITLE=James Brown - Funk Power  1970 - A Brand New Thang
DYEAR=1996
DGENRE=Funk
TTITLE0=Get Up I Feel Like Being A Sex Machine
TTITLE1=Super Bad
TTITLE2=Since You Been Gone
TTITLE3=Give It Up Or Turnit A Loose
TTITLE4=There Was A Time (I Got To Move)
TTITLE5=Talkin' Loud and Sayin' Nothing
TTITLE6=Get Up, Get Into It, Get Involved
TTITLE7=Soul Power
TTITLE8=Get Up I Feel Like Being A Sex Machine
TTITLE9=Fight Against Drug Abuse - public service announcement
EXTD=
EXTT0=
EXTT1=
EXTT2=
EXTT3=
EXTT4=
EXTT5=
EXTT6=
EXTT7=
EXTT8=
EXTT9=
PLAYORDER=
